<svg width="210" height="564" version="1.1" viewBox="0 0 55.5625 149.225" xmlns="http://www.w3.org/2000/svg">
 <path d="m37.0417 12.4354 18.5208 12.4354-18.5208 12.4354-18.5208-12.4354z" fill="#62ffff" fill-opacity=".3"/>
 <path d="m55.5625 0 18.5208 12.4354-18.5208 12.4354-18.5208-12.4354z" fill="#62ffff" fill-opacity=".2"/>
 <path d="m55.5625 24.8708 18.5208 12.4354-18.5208 12.4354-18.5208-12.4354z" fill="#60ffff" fill-opacity=".301961"/>
 <path d="m18.5208-4.33333e-6 18.5208 12.4354-18.5208 12.4354-18.5208-12.4354z" fill="#60ffff" fill-opacity=".15"/>
 <path d="m55.5625 49.7417 18.5208 12.4354-18.5208 12.4354-18.5208-12.4354z" fill="#62ffff" fill-opacity=".3"/>
 <g fill="#60ffff">
  <path d="m37.0417 62.1771 18.5208 12.4354-18.5208 12.4354-18.5208-12.4354z" fill-opacity=".15"/>
  <path d="m55.5625 24.8708 18.5208 12.4354-18.5208 12.4354-18.5208-12.4354z" fill-opacity=".1"/>
  <path d="m18.5208 74.6125 18.5208 12.4354-18.5208 12.4354-18.5208-12.4354z" fill-opacity=".1"/>
 </g>
 <path d="m55.5625 99.4833 18.5208 12.4354-18.5208 12.4354-18.5208-12.4354z" fill="#62ffff" fill-opacity=".3"/>
 <path d="m37.0417 111.919 18.5208 12.4354-18.5208 12.4354-18.5208-12.4354z" fill="#60ffff" fill-opacity=".1"/>
 <path d="m18.5208 49.7417 18.5208 12.4354-18.5208 12.4354-18.5208-12.4354z" fill="#60ffff" fill-opacity=".05"/>
 <path d="m18.5208 99.4833 18.5208 12.4354-18.5208 12.4354-18.5208-12.4354z" fill="#62ffff" fill-opacity=".2"/>
</svg>
