<svg width="280" height="94" version="1.1" viewBox="0 0 74.1 24.9" xmlns="http://www.w3.org/2000/svg">
 <path d="m18.5 0-18.5 12.4 18.5 12.4 18.5-12.4z" opacity="0" stroke-width=".265px"/>
 <g>
  <path d="m0-12.4-18.5 12.4 18.5 12.4 18.5-12.4z" fill="#28498a" opacity=".51"/>
  <path d="m37-12.4-18.5 12.4 18.5 12.4 18.5-12.4z" fill="#4e89c9" opacity=".494"/>
  <path d="m-37 28-18.5 12.4 18.5 12.4 18.5-12.4z" fill="#222467"/>
  <path d="m55.6-3.09e-6 -18.5 12.4 18.5 12.4 18.5-12.4z" fill="#222467" opacity=".226"/>
 </g>
 <g fill="#28498a">
  <path d="m1.65e-7 12.4-18.5 12.4 18.5 12.4 18.5-12.4z" opacity=".51"/>
  <path d="m74.1-12.4-18.5 12.4 18.5 12.4 18.5-12.4z" opacity=".51"/>
  <path d="m74.1 12.4-18.5 12.4 18.5 12.4 18.5-12.4z" opacity=".51"/>
 </g>
 <path d="m37 12.4-18.5 12.4 18.5 12.4 18.5-12.4z" fill="#4e89c9" opacity=".494"/>
</svg>
