<svg width="280" height="94" version="1.1" viewBox="0 0 74.0833 24.8708" xmlns="http://www.w3.org/2000/svg">
 <g>
  <path d="m18.5208 0-18.5208 12.4354 18.5208 12.4354 18.5208-12.4354z" fill="#283673"/>
  <path d="m0-12.4354-18.5208 12.4354 18.5208 12.4354 18.5208-12.4354z" fill="#2b3a78"/>
  <path d="m37.0417-12.4354-18.5208 12.4354 18.5208 12.4354 18.5208-12.4354z" fill="#2c3c7a"/>
  <path d="m55.5625-3.09053e-6 -18.5208 12.4354 18.5208 12.4354 18.5208-12.4354z" fill="#293775"/>
  <g fill="#2b3a78">
   <path d="m1.64894e-7 12.4354-18.5208 12.4354 18.5208 12.4354 18.5208-12.4354z"/>
   <path d="m74.0833-12.4354-18.5208 12.4354 18.5208 12.4354 18.5208-12.4354z"/>
   <path d="m74.0833 12.4354-18.5208 12.4354 18.5208 12.4354 18.5208-12.4354z"/>
  </g>
  <path d="m37.0417 12.4354-18.5208 12.4354 18.5208 12.4354 18.5208-12.4354z" fill="#2c3c7a"/>
 </g>
</svg>
