<svg width="210" height="564" version="1.1" viewBox="0 0 55.5625 149.225" xmlns="http://www.w3.org/2000/svg">
 <path d="m18.5208 12.4354-18.5208 12.4354 18.5208 12.4354 18.5208-12.4354z" fill="#62ffff" fill-opacity=".2"/>
 <path d="m0 0-18.5208 12.4354 18.5208 12.4354 18.5208-12.4354z" fill="#62ffff" fill-opacity=".1"/>
 <path d="m1.64894e-7 24.8708-18.5208 12.4354 18.5208 12.4354 18.5208-12.4354z" fill="#60ffff" fill-opacity=".301961"/>
 <path d="m37.0417 24.8708-18.5208 12.4354 18.5208 12.4354 18.5208-12.4354z" fill="#60ffff" fill-opacity=".05"/>
 <path d="m0 49.7417-18.5208 12.4354 18.5208 12.4354 18.5208-12.4354z" fill="#62ffff" fill-opacity=".15"/>
 <path d="m18.5208 62.1771-18.5208 12.4354 18.5208 12.4354 18.5208-12.4354z" fill="#60ffff" fill-opacity=".05"/>
 <path d="m18.5208 87.0479-18.5208 12.4354 18.5208 12.4354 18.5208-12.4354z" fill="#60ffff" fill-opacity=".15"/>
 <path d="m0 99.4833-18.5208 12.4354 18.5208 12.4354 18.5208-12.4354z" fill="#62ffff" fill-opacity=".2"/>
 <path d="m0 124.354-18.5208 12.4354 18.5208 12.4354 18.5208-12.4354z" fill="#60ffff" fill-opacity=".05"/>
</svg>
